<svg xmlns="http://www.w3.org/2000/svg" width="32" height="32" viewBox="0 0 32 32"><g fill="#fff"><path d="M16 31.5c-4.14 0-8.033-1.612-10.96-4.54A15.399 15.399 0 01.5 16c0-4.14 1.612-8.033 4.54-10.96A15.399 15.399 0 0116 .5c4.14 0 8.033 1.612 10.96 4.54A15.399 15.399 0 0131.5 16c0 4.14-1.612 8.033-4.54 10.96A15.399 15.399 0 0116 31.5z"/><path d="M16 1C11.993 1 8.227 2.56 5.393 5.393A14.902 14.902 0 001 16c0 4.007 1.56 7.773 4.393 10.607A14.902 14.902 0 0016 31c4.007 0 7.773-1.56 10.607-4.393A14.902 14.902 0 0031 16c0-4.007-1.56-7.773-4.393-10.607A14.902 14.902 0 0016 1m0-1c8.837 0 16 7.163 16 16s-7.163 16-16 16S0 24.837 0 16 7.163 0 16 0z" fill="#31418f"/></g><g fill="none"><path d="M9 11.975V9h2.975" stroke="#32428a"/><path d="M12.984 12.818L9 9.001" stroke="#31418f"/><path d="M9 20.025V23h2.975" stroke="#32428a"/><path d="M12.984 19.183L9 23" stroke="#31418f"/><path d="M23 11.975V9h-2.975" stroke="#32428a"/><path d="M19.016 12.818L23 9.001" stroke="#31418f"/><path d="M23 20.025V23h-2.975" stroke="#32428a"/><path d="M19.016 19.183L23 23" stroke="#31418f"/></g></svg>